<svg xmlns="http://www.w3.org/2000/svg" viewBox="0 0 100 100">
  <circle cx="50" cy="50" r="48" fill="#EBF5FF" stroke="#3B82F6" stroke-width="2"/>
  <path d="M70 35 L30 35 L30 70" stroke="#3B82F6" stroke-width="3" fill="none" stroke-linecap="round" stroke-linejoin="round"/>
  <path d="M45 55 L60 40" stroke="#3B82F6" stroke-width="3" fill="none" stroke-linecap="round" stroke-linejoin="round"/>
  <path d="M45 70 L70 45" stroke="#3B82F6" stroke-width="3" fill="none" stroke-linecap="round" stroke-linejoin="round"/>
  <line x1="40" y1="35" x2="40" y2="25" stroke="#EF4444" stroke-width="2"/>
  <line x1="50" y1="35" x2="50" y2="25" stroke="#EF4444" stroke-width="2"/>
  <line x1="60" y1="35" x2="60" y2="25" stroke="#EF4444" stroke-width="2"/>
  <circle cx="40" cy="22" r="3" fill="#EF4444"/>
  <circle cx="50" cy="22" r="3" fill="#EF4444"/>
  <circle cx="60" cy="22" r="3" fill="#EF4444"/>
  <path d="M30 45 L25 45 C22 45 20 43 20 40 C20 37 22 35 25 35 L30 35" stroke="#3B82F6" stroke-width="2" fill="none"/>
  <path d="M30 55 L25 55 C22 55 20 57 20 60 C20 63 22 65 25 65 L30 65" stroke="#3B82F6" stroke-width="2" fill="none"/>
  <path d="M70 65 L75 65 C78 65 80 67 80 70 C80 73 78 75 75 75 L70 75" stroke="#3B82F6" stroke-width="2" fill="none"/>
  <path d="M65 30 C65 25 68 20 73 20 C78 20 80 25 80 30" stroke="#10B981" stroke-width="2" fill="none"/>
  <path d="M75 20 L75 15" stroke="#10B981" stroke-width="2" stroke-linecap="round"/>
  <path d="M69 22 L65 18" stroke="#10B981" stroke-width="2" stroke-linecap="round"/>
  <path d="M81 22 L85 18" stroke="#10B981" stroke-width="2" stroke-linecap="round"/>
  <circle cx="73" cy="30" r="2" fill="#10B981"/>
</svg>